<svg id="Layer_1" data-name="Layer 1" xmlns="http://www.w3.org/2000/svg" viewBox="0 0 512 512"><title>cake</title><rect width="512" height="512" fill="#696969"/><path d="M335.84,368.61,127.08,346.89v20.87l208.76,21.74c19.58,2,35.48-1,35.48-6.76S355.42,370.65,335.84,368.61Z" fill="#696969"/><path d="M335.84,327,127.08,305.28v20.88L335.84,347.9c19.58,2,35.48-1,35.48-6.74S355.42,329.08,335.84,327Z" fill="#696969"/><path d="M335.84,285.43,127.08,263.7v20.88l208.76,21.72c19.58,2,35.48-1,35.48-6.75S355.42,287.47,335.84,285.43Z" fill="#696969"/><path d="M398.19,247.51C392.62,233,386.51,217,376.7,204.71c-7.41-9.28-21.31-17.31-33.61-15.43-.16,0-1.19.25-3,.65a65.37,65.37,0,0,1,.67,9.35A64.95,64.95,0,0,1,216,224.57q-1.21-2.85-2.13-5.78c-51,11.71-98.34,22.58-101.1,23.22-2.44.57-5.4.91-7.58,2.07a5.47,5.47,0,0,0-3.12,4.46V377.6c.54,4.69,5.61,8.86,11.79,9.5L161.25,392l213,22.17c19.58,2,35.48-8.52,35.48-23.59,0-9.52-6.33-18.52-15.93-24.42,9.59-3.88,15.93-11.59,15.93-21.09s-6.33-18.51-15.91-24.38C422.09,309.18,406.1,268.1,398.19,247.51Z" fill="#fff"/><path d="M335.84,389.49,127.08,367.75V346.89l208.76,21.72c19.58,2,35.48,8.36,35.48,14.12S355.42,391.53,335.84,389.49Z" fill="#696969"/><path d="M335.84,347.9,127.08,326.16V305.28L335.84,327c19.58,2,35.48,8.36,35.48,14.12S355.42,349.94,335.84,347.9Z" fill="#696969"/><path d="M335.84,306.31,127.08,284.59V263.7l208.76,21.72c19.58,2,35.48,8.38,35.48,14.14S355.42,308.35,335.84,306.31Z" fill="#696969"/><path d="M205.85,100.95c-1.82,3.12-1,8.31,2.6,9.91a54.92,54.92,0,0,1,8.56,4.82q1.18.79,2.32,1.63l1.54,1.16c1.16.92,2.3,1.85,3.42,2.82q4.42,3.82,8.49,8c2.85,3,5.59,6,8.19,9.19.74.9,1.47,1.81,2.19,2.73h0l.09.11.9,1.2,0,0c1.18,1.59,2.33,3.19,3.45,4.83q1.17,1.72,2.28,3.46c1.45,2.27,2.84,4.59,4.13,7l.9,1.69a44.8,44.8,0,1,0,14-4.63c-1.54-3.15-3.24-6.22-5.08-9.22s-3.83-6-5.91-8.83c-2.54-3.51-5.23-6.89-8-10.15a135.13,135.13,0,0,0-16.77-16.84c-5.34-4.43-11-8.71-17.41-11.53a10,10,0,0,0-2.81-.79h-2.06A6.7,6.7,0,0,0,205.85,100.95Z" fill="#fff"/></svg>