<svg id="Layer_1" data-name="Layer 1" xmlns="http://www.w3.org/2000/svg" viewBox="0 0 512 512"><title>cupcake</title><rect width="512" height="512" fill="#8acedd"/><path d="M390.13,294.69a12.57,12.57,0,0,0,10.68-7.08,29.73,29.73,0,0,0,1.81-10.6c0-9.26-3.69-17.82-9.94-24.81a49.41,49.41,0,0,0-10.93-9l-3.12-1.91a10.81,10.81,0,0,1-6.08-10.63s0-.18,0-4.18a77.37,77.37,0,0,0-9.9-37.66c-7.62-13.8-19.29-25.83-33.81-35.14a129.09,129.09,0,0,0-42.31-17.23A145,145,0,0,0,256,133.17a141.35,141.35,0,0,0-46,7.53,121.6,121.6,0,0,0-35.73,19.21c-12,9.41-21.41,20.85-27.43,33.64a76.76,76.76,0,0,0-7.45,32.88c0,4,0,4.18,0,4.18.52,4.2-1.89,8.82-5.34,10.26l-2.84,1.66a49.33,49.33,0,0,0-12.55,10.34A36.86,36.86,0,0,0,109.38,277a29.74,29.74,0,0,0,1.81,10.6,12.58,12.58,0,0,0,10.68,7.08H390.13Z" fill="#fff"/><path d="M288.69,134.14A32.69,32.69,0,1,1,256,101.45,32.69,32.69,0,0,1,288.69,134.14Z" fill="#fff"/><path d="M150.94,303.47a4,4,0,0,0-4.06,5.51l2.19,7.07,3.42,11,3.24,10.49c.94,3,2.48,8,3.42,11l13.52,43.62c.94,3,2.17,6.68,2.73,8.11l.77,1.21a20,20,0,0,0,4.7,5.06,20.87,20.87,0,0,0,4.28,2.52l2.15.94c2.48.29,7.12.53,10.29.53H314.41a72.59,72.59,0,0,0,11.43-1.09,19.8,19.8,0,0,0,9.06-6.68,72.36,72.36,0,0,0,4.43-10.59l5.86-18.88c.93-3,2.47-8,3.41-11l3.64-11.77,3.42-11,5.68-18.32c.94-3,2.48-8,3.41-11l.37-1.18a4,4,0,0,0-4.06-5.51H150.94Z" fill="#fff"/></svg>