<svg id="Layer_1" data-name="Layer 1" xmlns="http://www.w3.org/2000/svg" viewBox="0 0 512 512"><title>bread</title><rect width="512" height="512" fill="#fbc132"/><path d="M256,350.56c104.3,0,188.89-7.68,188.89-72.51,0-27.93-17.41-55.44-61.44-84.7a1.47,1.47,0,0,1-.31-.19,7.28,7.28,0,0,0-11.26,6.62,279.24,279.24,0,0,1-1.8,56.34,2.49,2.49,0,0,1-4.91.2c-6.93-35.23-20.62-65.54-29.19-82.25a7.43,7.43,0,0,0-4.52-3.71,268.84,268.84,0,0,0-51.56-8.91h-6.68a6.91,6.91,0,0,0-5.7,8.64c7.91,33.08,5.81,69.59,3.89,88.13a2.5,2.5,0,0,1-4.87.47c-6.27-21.7-20.46-67.8-34.48-91.79a7.25,7.25,0,0,0-6.93-3.55c-19.05,1.76-37.4,4.52-53.73,11.89-3.23,0-5.15,3.46-4.64,6.89,4.76,30,2.57,58,.39,74.54a2.3,2.3,0,0,1-2.41,1.9,2.65,2.65,0,0,1-2.53-2.14,309.76,309.76,0,0,0-18.7-59.89,9,9,0,0,0-12.82-4.32C86.75,217.73,67.11,247.58,67.11,278,67.11,342.88,151.66,350.56,256,350.56Z" fill="#fff"/></svg>